<svg t="1661761055322" class="icon" viewBox="0 0 1024 1024" version="1.1" xmlns="http://www.w3.org/2000/svg" p-id="1948" width="200" height="200"><path d="M411.79668066 961.99578477A31.52750273 31.52750273 0 0 1 395.98901914 958.04386895L105.30368369 788.11150537a30.91276055 30.91276055 0 0 1-15.36855996-26.34610254L88.61781817 424.9743875a30.91276055 30.91276055 0 0 1 46.45696201-26.87302529l290.94879638 169.58108232a31.08840117 31.08840117 0 0 1 15.36855997 26.34610254l1.31730468 336.52755439a31.08840117 31.08840117 0 0 1-30.91276055 31.17622237zM116.28122627 761.41412158a4.74229864 4.74229864 0 0 0 2.283329 3.95191495l290.86097608 169.58108232a4.47883769 4.47883769 0 0 0 4.65447832 0 4.566658 4.566658 0 0 0 2.283329-3.95191494l-1.31730557-336.61537471a4.74229864 4.74229864 0 0 0-2.283329-3.95191582L121.81390771 420.84683106a4.566658 4.566658 0 0 0-4.56665713-1e-8 4.39101738 4.39101738 0 0 0-2.283329 3.95191583zM612.0270626 961.99578477a31.08840117 31.08840117 0 0 1-30.91276055-31.17622149l1.31730469-336.5275544a31.08840117 31.08840117 0 0 1 15.28073964-26.34610341L888.66114277 398.10136221a30.91276055 30.91276055 0 0 1 46.45696202 26.87302529l-1.22948526 336.5275544a31.35186211 31.35186211 0 0 1-15.36855996 26.34610253L627.57126318 958.04386895a31.00058086 31.00058086 0 0 1-15.54420058 3.95191582z m292.17828164-541.76369591a4.74229864 4.74229864 0 0 0-2.28332901 0.61474219L611.06103916 590.42791338a4.74229864 4.74229864 0 0 0-2.283329 3.95191582l-1.31730557 336.61537471a4.39101738 4.39101738 0 0 0 2.283329 3.95191494 4.39101738 4.39101738 0 0 0 4.56665802 0L905.3470083 765.36603653a4.91793925 4.91793925 0 0 0 2.28332901-3.95191495l1.22948437-336.6153747a4.30319707 4.30319707 0 0 0-2.28332812-3.95191583 4.74229864 4.74229864 0 0 0-2.37114932-0.61474219zM505.14970537 458.34611768a31.00058086 31.00058086 0 0 1-15.45638027-4.03973614L197.69068408 286.65734697a31.00058086 31.00058086 0 0 1 0-53.7460497l292.44174258-166.85865176a31.00058086 31.00058086 0 0 1 30.64929961 0l292.17828164 168.00031582a30.91276055 30.91276055 0 0 1 0 53.65822939l-292.44174258 166.85865176a30.64929961 30.64929961 0 0 1-15.36855996 3.7762752z m-2.28332901-27.22430654a4.566658 4.566658 0 0 0 4.4788377 0l292.4417417-166.85865176a4.39101738 4.39101738 0 0 0 2.37114932-3.95191495 4.47883769 4.47883769 0 0 0-2.37114932-3.95191581L507.78431562 89.23721592a4.47883769 4.47883769 0 0 0-4.566658 0L210.77591592 255.48112549a4.566658 4.566658 0 0 0-2.283329 3.95191493 4.47883769 4.47883769 0 0 0 2.283329 3.95191583z" p-id="1949"></path></svg>