<svg t="1660979058479" class="icon" viewBox="0 0 1024 1024" version="1.1" xmlns="http://www.w3.org/2000/svg" p-id="2448" width="400" height="400"><path d="M917.333333 896h-810.666666C46.933333 896 0 844.8 0 780.8v-200.533333h42.666667c38.4 0 68.266667-29.866667 68.266666-68.266667 0-38.4-29.866667-68.266667-68.266666-68.266667H0V243.2C0 179.2 46.933333 128 106.666667 128h810.666666C977.066667 128 1024 179.2 1024 243.2v200.533333h-42.666667c-38.4 0-68.266667 29.866667-68.266666 68.266667 0 38.4 29.866667 68.266667 68.266666 68.266667h42.666667v200.533333c0 64-46.933333 115.2-106.666667 115.2zM85.333333 661.333333v119.466667c0 17.066667 12.8 29.866667 21.333334 29.866667h810.666666c8.533333 0 21.333333-12.8 21.333334-29.866667v-119.466667c-64-17.066667-110.933333-76.8-110.933334-149.333333 0-68.266667 46.933333-128 110.933334-149.333333V243.2c0-17.066667-12.8-29.866667-21.333334-29.866667h-810.666666c-8.533333 0-21.333333 12.8-21.333334 29.866667v119.466667c64 21.333333 110.933333 81.066667 110.933334 149.333333S149.333333 640 85.333333 661.333333z" p-id="2449"></path><path d="M312.00000031 831.99999969c-24 0-40.00000031-16.00000031-40.00000031-39.99999938v-40.00000031c0-24 16.00000031-40.00000031 40.00000031-40.00000031s40.00000031 16.00000031 39.99999938 40.00000031v40.00000031c0 24-16.00000031 40.00000031-39.99999938 39.99999938zM312.00000031 312.00000031c-24 0-40.00000031-16.00000031-40.00000031-40.00000031V224c0-24 16.00000031-40.00000031 40.00000031-40.00000031s40.00000031 16.00000031 39.99999938 40.00000031V272c0 24-16.00000031 40.00000031-39.99999938 40.00000031zM312.00000031 488c-24 0-40.00000031-16.00000031-40.00000031-40.00000031V392c0-24 16.00000031-40.00000031 40.00000031-40.00000031s40.00000031 16.00000031 39.99999938 40.00000031v55.99999969c0 24-16.00000031 40.00000031-39.99999938 40.00000031zM312.00000031 672.00000031c-24 0-40.00000031-16.00000031-40.00000031-40.00000031v-55.99999969c0-24 16.00000031-40.00000031 40.00000031-40.00000031s40.00000031 16.00000031 39.99999938 40.00000031V632c0 19.99999969-16.00000031 40.00000031-39.99999938 40.00000031zM591.99999969 488c-12 0-19.99999969-4.00000031-27.99999938-12l-120-120c-16.00000031-16.00000031-16.00000031-40.00000031 0-55.99999969s40.00000031-16.00000031 55.99999969 0l120 120c16.00000031 16.00000031 16.00000031 40.00000031 0 55.99999969-7.99999969 7.99999969-16.00000031 12-28.00000031 12z" p-id="2450"></path><path d="M591.99999969 488c-12 0-19.99999969-4.00000031-27.99999938-12-16.00000031-16.00000031-16.00000031-40.00000031 0-55.99999969l120-120c16.00000031-16.00000031 40.00000031-16.00000031 55.99999969 0s16.00000031 40.00000031 0 55.99999969l-120 120c-7.99999969 7.99999969-16.00000031 12-28.00000031 12z" p-id="2451"></path><path d="M695.75000029 489.5h-225c-22.5 0-37.50000029-15.00000029-37.50000029-37.50000029s15.00000029-37.50000029 37.50000029-37.49999942h225c22.5 0 37.50000029 15.00000029 37.49999942 37.49999942s-15.00000029 37.50000029-37.49999942 37.50000029zM699.49999971 617.00000029h-225c-22.5 0-37.50000029-15.00000029-37.49999942-37.50000029s15.00000029-37.50000029 37.49999942-37.50000029h225c22.5 0 37.50000029 15.00000029 37.50000029 37.50000029s-15.00000029 37.50000029-37.50000029 37.50000029z" p-id="2452"></path><path d="M586.99999971 714.5c-22.5 0-37.50000029-15.00000029-37.49999942-37.50000029v-225c0-22.5 15.00000029-37.50000029 37.49999942-37.49999942s37.50000029 15.00000029 37.50000029 37.49999942v225c0 22.5-15.00000029 37.50000029-37.50000029 37.50000029z" p-id="2453"></path></svg>