<?xml version="1.0" standalone="no"?><!DOCTYPE svg PUBLIC "-//W3C//DTD SVG 1.1//EN" "http://www.w3.org/Graphics/SVG/1.1/DTD/svg11.dtd"><svg t="1653643725187" class="icon" viewBox="0 0 1024 1024" version="1.1" xmlns="http://www.w3.org/2000/svg" p-id="2183" xmlns:xlink="http://www.w3.org/1999/xlink" width="16" height="16"><defs><style type="text/css">@font-face { font-family: feedback-iconfont; src: url("//at.alicdn.com/t/font_1031158_u69w8yhxdu.woff2?t=1630033759944") format("woff2"), url("//at.alicdn.com/t/font_1031158_u69w8yhxdu.woff?t=1630033759944") format("woff"), url("//at.alicdn.com/t/font_1031158_u69w8yhxdu.ttf?t=1630033759944") format("truetype"); }
</style></defs><path d="M650.24 292.864h-100.864v437.76H650.24c102.4 0 185.344-97.792 185.344-219.136 0-120.32-82.944-218.624-185.344-218.624z" fill="#D21112" p-id="2184"></path><path d="M512 0C229.376 0 0 229.376 0 512s229.376 512 512 512 512-229.376 512-512S794.624 0 512 0zM397.824 595.968c0 111.616-90.624 202.24-202.24 202.24h-33.792v-67.584h33.792c74.24 0 134.656-60.416 134.656-134.656V225.792h67.584v370.176z m252.416 202.24H481.792V225.792H650.24c139.264 0 252.416 128 252.416 286.208s-112.64 286.208-252.416 286.208z" fill="#D21112" p-id="2185"></path></svg>