<?xml version="1.0" standalone="no"?><!DOCTYPE svg PUBLIC "-//W3C//DTD SVG 1.1//EN" "http://www.w3.org/Graphics/SVG/1.1/DTD/svg11.dtd"><svg t="1655883318650" class="icon" viewBox="0 0 1024 1024" version="1.1" xmlns="http://www.w3.org/2000/svg" p-id="1552" xmlns:xlink="http://www.w3.org/1999/xlink" width="16" height="16"><defs><style type="text/css">@font-face { font-family: feedback-iconfont; src: url("//at.alicdn.com/t/font_1031158_u69w8yhxdu.woff2?t=1630033759944") format("woff2"), url("//at.alicdn.com/t/font_1031158_u69w8yhxdu.woff?t=1630033759944") format("woff"), url("//at.alicdn.com/t/font_1031158_u69w8yhxdu.ttf?t=1630033759944") format("truetype"); }
</style></defs><path d="M761.368464 485.775732c-10.188037-126.07951-116.114554-225.560222-244.803495-225.560222-129.370463 0-235.828077 99.480712-246.105141 225.540779-97.441263 10.015098-173.623339 90.659813-173.623339 188.351785 0 97.629551 75.928297 180.482561 172.877349 188.627055 1.935072 0.150426 3.807722 0.042979 5.615904-0.312108l460.130655 0c1.340531 0.249687 2.700505 0.400113 4.086062 0.400113 0.594541 0 1.188058-0.025583 1.782599-0.068562 89.759303-7.531534 185.834452-85.123726 185.834452-188.627055C927.182954 574.946634 855.832929 495.833809 761.368464 485.775732L761.368464 485.775732zM741.563396 820.416302c-0.656963-0.068562-1.315972-0.086981-2.016937-0.086981L271.504624 820.329321c-0.683569 0-1.341554 0.017396-2.00568 0.086981-73.266677-8.125051-130.110313-71.662133-130.110313-146.308227 0-81.234139 67.967998-147.316184 151.535275-147.316184 11.743462 0 21.278629-9.42772 21.278629-21.044292 0-112.191198 91.668793-203.440435 204.362434-203.440435 111.969141 0 203.067952 91.249237 203.067952 203.440435 0 11.616572 9.530051 21.044292 21.273513 21.044292 80.607876 0 143.748938 64.712861 143.748938 147.316184C884.636952 753.026472 811.389718 812.648384 741.563396 820.416302L741.563396 820.416302zM741.563396 820.416302" p-id="1553" fill="#1296db"></path><path d="M597.705987 613.793384c33.951253-24.220634 56.18565-63.573921 56.18565-108.062158 0-73.489758-60.441581-133.279493-134.733611-133.279493-74.291007 0-134.733611 59.789735-134.733611 133.279493 0 44.488237 22.23542 83.841523 56.18565 108.062158C374.150422 643.530662 327.70767 709.614753 327.70767 786.343275c0 11.616572 9.530051 21.044292 21.273513 21.044292s21.278629-9.42772 21.278629-21.044292c0-81.234139 66.797335-147.316184 148.924821-147.316184 82.118276 0 148.916635 66.100464 148.916635 147.316184 0 11.616572 9.53619 21.044292 21.278629 21.044292 11.743462 0 21.273513-9.42772 21.273513-21.044292C710.609407 709.614753 664.166655 643.530662 597.705987 613.793384L597.705987 613.793384zM426.933579 505.748622c0-50.299593 41.35692-91.184769 92.181469-91.184769 50.829665 0 92.186585 40.910759 92.186585 91.184769 0 50.276057-41.35692 91.186815-92.186585 91.186815C468.290499 596.935438 426.933579 556.023656 426.933579 505.748622L426.933579 505.748622zM426.933579 505.748622" p-id="1554" fill="#1296db"></path></svg>
