<svg t="1660968492445" class="icon" viewBox="0 0 1621 1024" version="1.1" xmlns="http://www.w3.org/2000/svg" p-id="1610" width="200" height="200"><path d="M1520.753778 0c62.805333 0 97.934222 48.696889 78.677333 108.145778l-261.688889 807.708444C1318.4 975.587556 1251.498667 1024 1188.977778 1024H89.344C26.538667 1024-8.590222 975.303111 10.666667 915.854222l261.688889-807.708444c19.342222-59.733333 86.243556-108.145778 148.764444-108.145778h1099.633778z m-110.421334 142.222222H438.812444c-15.559111 0-32.711111 11.975111-37.831111 26.737778L163.214222 855.04c-5.034667 14.506667 3.527111 26.737778 19.313778 26.737778h971.52c15.559111 0 32.711111-11.975111 37.831111-26.737778l237.738667-686.08c5.034667-14.506667-3.527111-26.737778-19.313778-26.737778zM1123.555556 568.888889l-61.923556 170.666667H369.777778l56.888889-170.666667h696.888889z m113.777777-284.444445l-61.923555 170.666667H469.333333l61.923556-170.666667H1237.333333z" fill="#F44B34" p-id="1611"></path></svg>